<?xml version="1.0" encoding="UTF-8" standalone="no"?><!DOCTYPE svg PUBLIC "-//W3C//DTD SVG 1.1//EN" "http://www.w3.org/Graphics/SVG/1.1/DTD/svg11.dtd"><svg width="100%" height="100%" viewBox="0 0 3891 1000" version="1.1" xmlns="http://www.w3.org/2000/svg" xmlns:xlink="http://www.w3.org/1999/xlink" xml:space="preserve" xmlns:serif="http://www.serif.com/" style="fill-rule:evenodd;clip-rule:evenodd;stroke-linejoin:round;stroke-miterlimit:2;"><rect id="Plan-de-travail1" serif:id="Plan de travail1" x="0" y="0" width="3891" height="1000" style="fill:none;"/><g><g><g><path d="M398.884,628.829c-0,-10.461 -8.238,-17.502 -18.383,-15.713l-122.044,21.516c-10.145,1.789 -18.382,11.734 -18.382,22.195l-0,230.507c-0,10.46 8.237,17.501 18.382,15.712l122.044,-21.516c10.145,-1.789 18.383,-11.734 18.383,-22.195l-0,-230.506Z" style="fill:#fff;fill-rule:nonzero;"/><path d="M716.502,112.667c-0,-10.461 -8.238,-17.502 -18.384,-15.713l-122.043,21.517c-10.146,1.788 -18.382,11.733 -18.382,22.195l-0,230.506c-0,10.461 8.236,17.501 18.382,15.713l122.043,-21.517c10.146,-1.789 18.384,-11.734 18.384,-22.194l-0,-230.507Z" style="fill:#fff;fill-opacity:0.6;fill-rule:nonzero;"/><path d="M418.765,166.512c-4.712,-10.377 -17.363,-17.246 -28.233,-15.33l-130.761,23.054c-10.871,1.916 -15.87,11.897 -11.159,22.274l289.2,636.951c4.712,10.378 17.362,17.247 28.233,15.33l130.761,-23.052c10.87,-1.917 15.87,-11.898 11.158,-22.276l-289.199,-636.951Z" style="fill:#fff;fill-rule:nonzero;"/></g></g><g transform="matrix(633.845,0,0,633.845,985.673,730.573)"><path d="M0.208,0.008c-0.034,0 -0.065,-0.005 -0.091,-0.017c-0.027,-0.011 -0.048,-0.028 -0.064,-0.051c-0.015,-0.023 -0.023,-0.052 -0.023,-0.086c0,-0.029 0.006,-0.054 0.017,-0.073c0.011,-0.019 0.025,-0.034 0.044,-0.046c0.019,-0.011 0.041,-0.02 0.065,-0.026c0.024,-0.006 0.05,-0.01 0.076,-0.013c0.032,-0.004 0.058,-0.007 0.076,-0.009c0.019,-0.003 0.032,-0.007 0.04,-0.013c0.008,-0.005 0.012,-0.014 0.012,-0.025l0,-0.004c0,-0.014 -0.003,-0.027 -0.011,-0.038c-0.007,-0.011 -0.017,-0.019 -0.031,-0.026c-0.014,-0.006 -0.03,-0.009 -0.05,-0.009c-0.019,0 -0.036,0.003 -0.051,0.009c-0.015,0.007 -0.026,0.015 -0.035,0.026c-0.008,0.011 -0.013,0.024 -0.015,0.038l-0.122,0c0.002,-0.032 0.012,-0.061 0.03,-0.086c0.018,-0.026 0.044,-0.047 0.077,-0.062c0.033,-0.015 0.072,-0.023 0.118,-0.023c0.033,-0 0.064,0.004 0.09,0.013c0.027,0.008 0.05,0.02 0.069,0.035c0.018,0.016 0.033,0.034 0.043,0.055c0.01,0.021 0.015,0.043 0.015,0.068l-0,0.355l-0.125,0l-0,-0.073l-0.002,0c-0.009,0.016 -0.019,0.03 -0.032,0.042c-0.014,0.012 -0.03,0.022 -0.049,0.029c-0.02,0.007 -0.043,0.01 -0.071,0.01Zm0.033,-0.093c0.026,0 0.047,-0.005 0.065,-0.014c0.018,-0.009 0.032,-0.022 0.041,-0.038c0.01,-0.016 0.014,-0.034 0.014,-0.053l0,-0.055c-0.004,0.002 -0.009,0.004 -0.017,0.007c-0.007,0.002 -0.016,0.004 -0.026,0.006c-0.01,0.002 -0.021,0.004 -0.032,0.006c-0.012,0.002 -0.024,0.004 -0.036,0.006c-0.018,0.002 -0.034,0.006 -0.048,0.012c-0.014,0.005 -0.026,0.013 -0.035,0.023c-0.009,0.009 -0.013,0.022 -0.013,0.037c0,0.02 0.008,0.035 0.024,0.046c0.015,0.012 0.036,0.017 0.063,0.017Z" style="fill:#fff;fill-rule:nonzero;"/></g><g transform="matrix(633.845,0,0,633.845,1328.35,730.573)"><rect x="0.054" y="-0.728" width="0.128" height="0.728" style="fill:#fff;fill-rule:nonzero;"/></g><g transform="matrix(633.845,0,0,633.845,1478.27,730.573)"><path d="M0.283,0.012c-0.051,-0 -0.096,-0.012 -0.134,-0.035c-0.038,-0.023 -0.067,-0.055 -0.088,-0.095c-0.021,-0.041 -0.031,-0.087 -0.031,-0.139c0,-0.053 0.011,-0.099 0.032,-0.14c0.021,-0.041 0.05,-0.072 0.088,-0.096c0.037,-0.023 0.08,-0.034 0.128,-0.034c0.037,-0 0.071,0.006 0.102,0.019c0.03,0.013 0.056,0.031 0.078,0.055c0.022,0.024 0.039,0.053 0.051,0.085c0.012,0.033 0.018,0.069 0.018,0.109l-0,0.034l-0.448,0l0,-0.086l0.384,0l-0.057,0.022c0,-0.028 -0.005,-0.053 -0.015,-0.073c-0.011,-0.021 -0.025,-0.037 -0.044,-0.048c-0.019,-0.011 -0.041,-0.017 -0.067,-0.017c-0.025,0 -0.047,0.006 -0.066,0.017c-0.019,0.011 -0.033,0.027 -0.044,0.048c-0.01,0.02 -0.015,0.045 -0.015,0.073l0,0.056c0,0.029 0.005,0.054 0.015,0.076c0.011,0.022 0.026,0.039 0.045,0.051c0.02,0.012 0.044,0.018 0.071,0.018c0.021,0 0.039,-0.003 0.054,-0.009c0.016,-0.006 0.029,-0.014 0.039,-0.025c0.011,-0.011 0.018,-0.024 0.023,-0.038l0.119,0c-0.007,0.034 -0.021,0.064 -0.043,0.089c-0.022,0.026 -0.05,0.046 -0.084,0.061c-0.033,0.014 -0.07,0.022 -0.111,0.022Z" style="fill:#fff;fill-rule:nonzero;"/></g><g transform="matrix(633.845,0,0,633.845,1829.98,730.573)"><path d="M0.054,0.204l0,-0.72l0.126,0l0,0.072l0.002,-0c0.011,-0.018 0.024,-0.034 0.039,-0.046c0.016,-0.012 0.034,-0.021 0.054,-0.027c0.019,-0.006 0.04,-0.009 0.062,-0.009c0.045,-0 0.083,0.011 0.117,0.034c0.033,0.022 0.059,0.054 0.078,0.094c0.018,0.04 0.028,0.087 0.028,0.14c-0,0.053 -0.009,0.1 -0.028,0.141c-0.018,0.04 -0.044,0.071 -0.078,0.094c-0.033,0.022 -0.072,0.034 -0.117,0.034c-0.023,-0 -0.044,-0.004 -0.063,-0.01c-0.019,-0.007 -0.036,-0.017 -0.052,-0.03c-0.015,-0.013 -0.028,-0.029 -0.038,-0.048l-0.002,-0l0,0.281l-0.128,0Zm0.252,-0.3c0.025,0 0.047,-0.006 0.065,-0.019c0.019,-0.012 0.033,-0.031 0.044,-0.055c0.01,-0.024 0.015,-0.054 0.015,-0.088c0,-0.035 -0.005,-0.065 -0.015,-0.089c-0.011,-0.024 -0.025,-0.042 -0.044,-0.055c-0.018,-0.012 -0.04,-0.019 -0.065,-0.019c-0.027,0 -0.049,0.007 -0.069,0.02c-0.02,0.014 -0.035,0.033 -0.045,0.057c-0.011,0.024 -0.017,0.053 -0.017,0.086c0,0.033 0.006,0.061 0.017,0.086c0.01,0.024 0.025,0.043 0.045,0.056c0.02,0.014 0.042,0.02 0.069,0.02Z" style="fill:#fff;fill-rule:nonzero;"/></g><g transform="matrix(633.845,0,0,633.845,2203.85,730.573)"><path d="M0.182,-0.295l0,0.295l-0.128,-0l0,-0.728l0.128,0l0,0.301l0.002,0c0.012,-0.028 0.031,-0.052 0.057,-0.071c0.026,-0.019 0.06,-0.028 0.1,-0.028c0.036,-0 0.069,0.008 0.098,0.024c0.028,0.016 0.051,0.039 0.069,0.069c0.017,0.031 0.025,0.068 0.025,0.111l0,0.322l-0.128,-0l0,-0.303c0,-0.037 -0.009,-0.066 -0.029,-0.085c-0.019,-0.02 -0.046,-0.03 -0.079,-0.03c-0.021,0 -0.04,0.005 -0.058,0.014c-0.017,0.008 -0.031,0.022 -0.041,0.04c-0.011,0.018 -0.016,0.041 -0.016,0.069Z" style="fill:#fff;fill-rule:nonzero;"/></g><g transform="matrix(633.845,0,0,633.845,2575.86,730.573)"><path d="M0.054,-0l0,-0.516l0.128,0l0,0.516l-0.128,-0Zm0.064,-0.593c-0.021,-0 -0.039,-0.007 -0.054,-0.021c-0.015,-0.014 -0.022,-0.031 -0.022,-0.051c-0,-0.019 0.007,-0.036 0.022,-0.05c0.015,-0.014 0.033,-0.021 0.054,-0.021c0.021,-0 0.039,0.007 0.054,0.021c0.015,0.014 0.023,0.031 0.023,0.05c-0,0.02 -0.008,0.037 -0.023,0.051c-0.015,0.014 -0.033,0.021 -0.054,0.021Z" style="fill:#fff;fill-rule:nonzero;"/></g><g transform="matrix(633.845,0,0,633.845,2725.78,730.573)"><path d="M0.405,-0.221l0,-0.295l0.128,0l0,0.516l-0.126,-0l-0,-0.089l-0.002,0c-0.011,0.029 -0.03,0.052 -0.057,0.071c-0.026,0.019 -0.06,0.029 -0.1,0.029c-0.036,-0 -0.068,-0.008 -0.098,-0.025c-0.029,-0.016 -0.052,-0.039 -0.07,-0.069c-0.017,-0.031 -0.026,-0.067 -0.026,-0.11l0,-0.323l0.128,0l0,0.303c0,0.037 0.01,0.066 0.03,0.086c0.02,0.019 0.046,0.029 0.079,0.029c0.021,-0 0.041,-0.004 0.058,-0.013c0.017,-0.009 0.031,-0.022 0.041,-0.041c0.01,-0.018 0.015,-0.041 0.015,-0.069Z" style="fill:#fff;fill-rule:nonzero;"/></g><g transform="matrix(633.845,0,0,633.845,3098.17,730.573)"><path d="M0.054,-0l-0,-0.516l0.123,0l0,0.089l0.002,0c0.011,-0.029 0.031,-0.053 0.058,-0.071c0.028,-0.019 0.06,-0.028 0.096,-0.028c0.036,-0 0.068,0.009 0.095,0.028c0.026,0.019 0.044,0.043 0.053,0.072l0.002,0c0.01,-0.028 0.03,-0.052 0.06,-0.071c0.029,-0.02 0.063,-0.029 0.103,-0.029c0.032,-0 0.062,0.007 0.088,0.021c0.026,0.014 0.046,0.035 0.062,0.063c0.015,0.027 0.022,0.061 0.022,0.101l0,0.341l-0.128,-0l0,-0.321c0,-0.033 -0.009,-0.058 -0.027,-0.074c-0.018,-0.015 -0.04,-0.023 -0.066,-0.023c-0.031,-0 -0.055,0.009 -0.072,0.029c-0.018,0.019 -0.027,0.043 -0.027,0.074l0,0.315l-0.124,-0l0,-0.326c0,-0.028 -0.009,-0.051 -0.026,-0.067c-0.017,-0.017 -0.039,-0.025 -0.066,-0.025c-0.018,-0 -0.034,0.004 -0.05,0.012c-0.015,0.009 -0.027,0.022 -0.037,0.038c-0.009,0.017 -0.013,0.037 -0.013,0.061l-0,0.307l-0.128,-0Z" style="fill:#fff;fill-rule:nonzero;"/></g><g transform="matrix(633.845,0,0,633.845,3650.93,730.573)"></g></g></svg>