<?xml version="1.0" encoding="UTF-8" standalone="no"?>
<!DOCTYPE svg PUBLIC "-//W3C//DTD SVG 1.1//EN" "http://www.w3.org/Graphics/SVG/1.1/DTD/svg11.dtd">
<svg width="100%" height="100%" viewBox="0 0 3891 1000" version="1.1" xmlns="http://www.w3.org/2000/svg" xmlns:xlink="http://www.w3.org/1999/xlink" xml:space="preserve" xmlns:serif="http://www.serif.com/" style="fill-rule:evenodd;clip-rule:evenodd;stroke-linejoin:round;stroke-miterlimit:2;">
    <g transform="matrix(1,0,0,1,-4815.07,-340.831)">
        <g id="Plan-de-travail1" serif:id="Plan de travail1" transform="matrix(2.77929,0,0,0.4876,785.108,340.831)">
            <rect x="1450" y="0" width="1400" height="2050.86" style="fill:none;"/>
            <g transform="matrix(4.56795,0,0,45.9103,-2044.11,-27811.8)">
                <g transform="matrix(0.144173,0,0,0.0794574,775.246,252.038)">
                    <g>
                        <g transform="matrix(0.46324,0,0,0.476693,59.5258,4506.4)">
                            <path d="M187.296,627.61C187.296,615.272 177.581,606.969 165.616,609.078L21.68,634.454C9.715,636.564 -0,648.293 -0,660.63L-0,932.485C-0,944.822 9.715,953.126 21.68,951.016L165.616,925.64C177.581,923.531 187.296,911.802 187.296,899.464L187.296,627.61Z" style="fill-rule:nonzero;"/>
                        </g>
                        <g transform="matrix(0.46324,0,0,0.476693,59.5258,4506.4)">
                            <path d="M561.888,18.859C561.888,6.522 552.173,-1.782 540.207,0.327L396.272,25.704C384.306,27.813 374.592,39.542 374.592,51.88L374.592,323.734C374.592,336.072 384.306,344.375 396.272,342.266L540.207,316.89C552.173,314.78 561.888,303.051 561.888,290.714L561.888,18.859Z" style="fill-rule:nonzero;"/>
                        </g>
                        <g transform="matrix(0.46324,0,0,0.476693,59.5258,4506.4)">
                            <path d="M210.743,82.363C205.186,70.124 190.266,62.023 177.446,64.283L23.229,91.472C10.408,93.732 4.512,105.503 10.069,117.742L351.145,868.949C356.702,881.188 371.622,889.29 384.442,887.029L538.659,859.841C551.479,857.581 557.376,845.809 551.819,833.57L210.743,82.363Z" style="fill-rule:nonzero;"/>
                        </g>
                    </g>
                </g>
                <g transform="matrix(0.832103,0,0,0.471909,317.744,22.8994)">
                    <g transform="matrix(60,0,0,60,630.706,1304.33)">
                        <path d="M0.208,0.008C0.174,0.008 0.143,0.003 0.117,-0.009C0.09,-0.02 0.069,-0.037 0.053,-0.06C0.038,-0.083 0.03,-0.112 0.03,-0.146C0.03,-0.175 0.036,-0.2 0.047,-0.219C0.058,-0.238 0.072,-0.253 0.091,-0.265C0.11,-0.276 0.132,-0.285 0.156,-0.291C0.18,-0.297 0.206,-0.301 0.232,-0.304C0.264,-0.308 0.29,-0.311 0.308,-0.313C0.327,-0.316 0.34,-0.32 0.348,-0.326C0.356,-0.331 0.36,-0.34 0.36,-0.351L0.36,-0.355C0.36,-0.369 0.357,-0.382 0.349,-0.393C0.342,-0.404 0.332,-0.412 0.318,-0.419C0.304,-0.425 0.288,-0.428 0.268,-0.428C0.249,-0.428 0.232,-0.425 0.217,-0.419C0.202,-0.412 0.191,-0.404 0.182,-0.393C0.174,-0.382 0.169,-0.369 0.167,-0.355L0.045,-0.355C0.047,-0.387 0.057,-0.416 0.075,-0.441C0.093,-0.467 0.119,-0.488 0.152,-0.503C0.185,-0.518 0.224,-0.526 0.27,-0.526C0.303,-0.526 0.334,-0.522 0.36,-0.513C0.387,-0.505 0.41,-0.493 0.429,-0.478C0.447,-0.462 0.462,-0.444 0.472,-0.423C0.482,-0.402 0.487,-0.38 0.487,-0.355L0.487,-0L0.362,-0L0.362,-0.073L0.36,-0.073C0.351,-0.057 0.341,-0.043 0.328,-0.031C0.314,-0.019 0.298,-0.009 0.279,-0.002C0.259,0.005 0.236,0.008 0.208,0.008ZM0.241,-0.085C0.267,-0.085 0.288,-0.09 0.306,-0.099C0.324,-0.108 0.338,-0.121 0.347,-0.137C0.357,-0.153 0.361,-0.171 0.361,-0.19L0.361,-0.245C0.357,-0.243 0.352,-0.241 0.344,-0.238C0.337,-0.236 0.328,-0.234 0.318,-0.232C0.308,-0.23 0.297,-0.228 0.286,-0.226C0.274,-0.224 0.262,-0.222 0.25,-0.22C0.232,-0.218 0.216,-0.214 0.202,-0.208C0.188,-0.203 0.176,-0.195 0.167,-0.185C0.158,-0.176 0.154,-0.163 0.154,-0.148C0.154,-0.128 0.162,-0.113 0.178,-0.102C0.193,-0.09 0.214,-0.085 0.241,-0.085Z" style="fill-rule:nonzero;"/>
                    </g>
                    <g transform="matrix(60,0,0,60,663.144,1304.33)">
                        <rect x="0.054" y="-0.728" width="0.128" height="0.728" style="fill-rule:nonzero;"/>
                    </g>
                    <g transform="matrix(60,0,0,60,677.335,1304.33)">
                        <path d="M0.283,0.012C0.232,0.012 0.187,0 0.149,-0.023C0.111,-0.046 0.082,-0.078 0.061,-0.118C0.04,-0.159 0.03,-0.205 0.03,-0.257C0.03,-0.31 0.041,-0.356 0.062,-0.397C0.083,-0.438 0.112,-0.469 0.15,-0.493C0.187,-0.516 0.23,-0.527 0.278,-0.527C0.315,-0.527 0.349,-0.521 0.38,-0.508C0.41,-0.495 0.436,-0.477 0.458,-0.453C0.48,-0.429 0.497,-0.4 0.509,-0.368C0.521,-0.335 0.527,-0.299 0.527,-0.259L0.527,-0.225L0.079,-0.225L0.079,-0.311L0.463,-0.311L0.406,-0.289C0.406,-0.317 0.401,-0.342 0.391,-0.362C0.38,-0.383 0.366,-0.399 0.347,-0.41C0.328,-0.421 0.306,-0.427 0.28,-0.427C0.255,-0.427 0.233,-0.421 0.214,-0.41C0.195,-0.399 0.181,-0.383 0.17,-0.362C0.16,-0.342 0.155,-0.317 0.155,-0.289L0.155,-0.233C0.155,-0.204 0.16,-0.179 0.17,-0.157C0.181,-0.135 0.196,-0.118 0.215,-0.106C0.235,-0.094 0.259,-0.088 0.286,-0.088C0.307,-0.088 0.325,-0.091 0.34,-0.097C0.356,-0.103 0.369,-0.111 0.379,-0.122C0.39,-0.133 0.397,-0.146 0.402,-0.16L0.521,-0.16C0.514,-0.126 0.5,-0.096 0.478,-0.071C0.456,-0.045 0.428,-0.025 0.394,-0.01C0.361,0.004 0.324,0.012 0.283,0.012Z" style="fill-rule:nonzero;"/>
                    </g>
                    <g transform="matrix(60,0,0,60,710.628,1304.33)">
                        <path d="M0.054,0.204L0.054,-0.516L0.18,-0.516L0.18,-0.444L0.182,-0.444C0.193,-0.462 0.206,-0.478 0.221,-0.49C0.237,-0.502 0.255,-0.511 0.275,-0.517C0.294,-0.523 0.315,-0.526 0.337,-0.526C0.382,-0.526 0.42,-0.515 0.454,-0.492C0.487,-0.47 0.513,-0.438 0.532,-0.398C0.55,-0.358 0.56,-0.311 0.56,-0.258C0.56,-0.205 0.551,-0.158 0.532,-0.117C0.514,-0.077 0.488,-0.046 0.454,-0.023C0.421,-0.001 0.382,0.011 0.337,0.011C0.314,0.011 0.293,0.007 0.274,0.001C0.255,-0.006 0.238,-0.016 0.222,-0.029C0.207,-0.042 0.194,-0.058 0.184,-0.077L0.182,-0.077L0.182,0.204L0.054,0.204ZM0.306,-0.096C0.331,-0.096 0.353,-0.102 0.371,-0.115C0.39,-0.127 0.404,-0.146 0.415,-0.17C0.425,-0.194 0.43,-0.224 0.43,-0.258C0.43,-0.293 0.425,-0.323 0.415,-0.347C0.404,-0.371 0.39,-0.389 0.371,-0.402C0.353,-0.414 0.331,-0.421 0.306,-0.421C0.279,-0.421 0.257,-0.414 0.237,-0.401C0.217,-0.387 0.202,-0.368 0.192,-0.344C0.181,-0.32 0.175,-0.291 0.175,-0.258C0.175,-0.225 0.181,-0.197 0.192,-0.172C0.202,-0.148 0.217,-0.129 0.237,-0.116C0.257,-0.102 0.279,-0.096 0.306,-0.096Z" style="fill-rule:nonzero;"/>
                    </g>
                    <g transform="matrix(60,0,0,60,746.019,1304.33)">
                        <path d="M0.182,-0.295L0.182,-0L0.054,-0L0.054,-0.728L0.182,-0.728L0.182,-0.427L0.184,-0.427C0.196,-0.455 0.215,-0.479 0.241,-0.498C0.267,-0.517 0.301,-0.526 0.341,-0.526C0.377,-0.526 0.41,-0.518 0.439,-0.502C0.467,-0.486 0.49,-0.463 0.508,-0.433C0.525,-0.402 0.533,-0.365 0.533,-0.322L0.533,-0L0.405,-0L0.405,-0.303C0.405,-0.34 0.396,-0.369 0.376,-0.388C0.357,-0.408 0.33,-0.418 0.297,-0.418C0.276,-0.418 0.257,-0.413 0.239,-0.404C0.222,-0.396 0.208,-0.382 0.198,-0.364C0.187,-0.346 0.182,-0.323 0.182,-0.295Z" style="fill-rule:nonzero;"/>
                    </g>
                    <g transform="matrix(60,0,0,60,781.234,1304.33)">
                        <path d="M0.054,-0L0.054,-0.516L0.182,-0.516L0.182,-0L0.054,-0ZM0.118,-0.593C0.097,-0.593 0.079,-0.6 0.064,-0.614C0.049,-0.628 0.042,-0.645 0.042,-0.665C0.042,-0.684 0.049,-0.701 0.064,-0.715C0.079,-0.729 0.097,-0.736 0.118,-0.736C0.139,-0.736 0.157,-0.729 0.172,-0.715C0.187,-0.701 0.195,-0.684 0.195,-0.665C0.195,-0.645 0.187,-0.628 0.172,-0.614C0.157,-0.6 0.139,-0.593 0.118,-0.593Z" style="fill-rule:nonzero;"/>
                    </g>
                    <g transform="matrix(60,0,0,60,795.426,1304.33)">
                        <path d="M0.405,-0.221L0.405,-0.516L0.533,-0.516L0.533,-0L0.407,-0L0.407,-0.089L0.405,-0.089C0.394,-0.06 0.375,-0.037 0.348,-0.018C0.322,0.001 0.288,0.011 0.248,0.011C0.212,0.011 0.18,0.003 0.15,-0.014C0.121,-0.03 0.098,-0.053 0.08,-0.083C0.063,-0.114 0.054,-0.15 0.054,-0.193L0.054,-0.516L0.182,-0.516L0.182,-0.213C0.182,-0.176 0.192,-0.147 0.212,-0.127C0.232,-0.108 0.258,-0.098 0.291,-0.098C0.312,-0.098 0.332,-0.102 0.349,-0.111C0.366,-0.12 0.38,-0.133 0.39,-0.152C0.4,-0.17 0.405,-0.193 0.405,-0.221Z" style="fill-rule:nonzero;"/>
                    </g>
                    <g transform="matrix(60,0,0,60,830.676,1304.33)">
                        <path d="M0.054,-0L0.054,-0.516L0.177,-0.516L0.177,-0.427L0.179,-0.427C0.19,-0.456 0.21,-0.48 0.237,-0.498C0.265,-0.517 0.297,-0.526 0.333,-0.526C0.369,-0.526 0.401,-0.517 0.428,-0.498C0.454,-0.479 0.472,-0.455 0.481,-0.426L0.483,-0.426C0.493,-0.454 0.513,-0.478 0.543,-0.497C0.572,-0.517 0.606,-0.526 0.646,-0.526C0.678,-0.526 0.708,-0.519 0.734,-0.505C0.76,-0.491 0.78,-0.47 0.796,-0.442C0.811,-0.415 0.818,-0.381 0.818,-0.341L0.818,-0L0.69,-0L0.69,-0.321C0.69,-0.354 0.681,-0.379 0.663,-0.395C0.645,-0.41 0.623,-0.418 0.597,-0.418C0.566,-0.418 0.542,-0.409 0.525,-0.389C0.507,-0.37 0.498,-0.346 0.498,-0.315L0.498,-0L0.374,-0L0.374,-0.326C0.374,-0.354 0.365,-0.377 0.348,-0.393C0.331,-0.41 0.309,-0.418 0.282,-0.418C0.264,-0.418 0.248,-0.414 0.232,-0.406C0.217,-0.397 0.205,-0.384 0.195,-0.368C0.186,-0.351 0.182,-0.331 0.182,-0.307L0.182,-0L0.054,-0Z" style="fill-rule:nonzero;"/>
                    </g>
                    <g transform="matrix(60,0,0,60,883,1304.33)">
                    </g>
                </g>
            </g>
        </g>
    </g>
</svg>
