<?xml version="1.0" encoding="UTF-8" standalone="no"?>
<svg
   width="2600.7383"
   height="1188.1694"
   viewBox="0 0 2600.7383 1188.1694"
   version="1.1"
   xml:space="preserve"
   style="clip-rule:evenodd;fill-rule:evenodd"
   id="svg20510"
   xmlns="http://www.w3.org/2000/svg"
   xmlns:svg="http://www.w3.org/2000/svg"><defs
     id="defs20514"><linearGradient
       id="_Linear1logo"
       x1="0"
       y1="0"
       x2="1"
       y2="0"
       gradientUnits="userSpaceOnUse"
       gradientTransform="matrix(-187.296,304.875,-304.875,-187.296,561.888,18.8592)"><stop
         offset="0"
         style="stop-color:#ff5d51;stop-opacity:1"
         id="stop125244" /><stop
         offset="1"
         style="stop-color:#1200da;stop-opacity:1"
         id="stop125246" /></linearGradient></defs><rect
     style="fill:#000000;stroke-width:1.79104;stroke-linejoin:round"
     id="rect1343"
     width="2602.1855"
     height="1192.8053"
     x="9.9999997e-05"
     y="2.8421709e-14" /><g
     id="g1713"
     transform="translate(-1658.6308,-745.38867)"><path
       id="path80285"
       style="fill:#ff5d51"
       d="m 3619.4746,897.10547 a 254.795,254.795 0 0 0 -148.1289,48.21484 h 297.1758 a 254.795,254.795 0 0 0 -149.0469,-48.21484 z m -172.4863,67.86328 a 254.795,254.795 0 0 0 -58.8633,80.31645 h 462.7129 a 254.795,254.795 0 0 0 -58.2988,-80.31645 z m -66.3242,99.96485 a 254.795,254.795 0 0 0 -15.5098,80.3223 h 508.9531 a 254.795,254.795 0 0 0 -15.166,-80.3223 z m -15.0547,99.9707 a 254.795,254.795 0 0 0 17.4218,80.3105 h 127.084 l 47.3477,-33.6562 33.9297,33.6562 h 265.0996 a 254.795,254.795 0 0 0 17.4336,-80.3105 z m 25.9824,99.959 a 254.795,254.795 0 0 0 15.5957,26.7012 l 14.7793,16.3105 60.5078,-43.0117 z m 219.6094,0 117.6406,116.6933 a 254.795,254.795 0 0 0 118.9394,-116.6933 z" /><path
       style="color:#000000;clip-rule:evenodd;fill:#ff7e51;fill-rule:nonzero;-inkscape-stroke:none"
       d="m 3856.4921,1245.2148 c -2.626,6.6691 -5.5322,13.2244 -8.7109,19.6485 h 411.5879 v -19.6485 z"
       id="path27425" /><path
       id="path27423"
       style="color:#000000;clip-rule:evenodd;fill:#ff7e51;fill-rule:nonzero;-inkscape-stroke:none"
       d="m 1658.6309,1245.2148 v 19.6485 h 418.4121 l 25.5312,-19.6485 z m 521.4179,0 23.4102,19.6485 h 524.6308 l 26.9082,-19.6485 z m 1185.1446,0 17.8027,19.6485 h 8.5957 a 254.795,254.795 0 0 1 -8.5606,-19.6485 z" /><path
       style="color:#000000;clip-rule:evenodd;fill:#ff7e51;fill-rule:nonzero;-inkscape-stroke:none"
       d="m 3874.1074,1145.2559 c 0.083,2.214 0.137,4.4291 0.1621,6.6445 0,4.3369 -0.1185,8.6729 -0.3438,13.0039 h 385.4434 v -19.6484 z"
       id="path27421" /><path
       id="path27419"
       style="color:#000000;clip-rule:evenodd;fill:#ff7e51;fill-rule:nonzero;-inkscape-stroke:none"
       d="m 1658.6309,1145.2559 v 19.6484 h 1206.3554 l 26.9082,-19.6484 z m 1615.9941,0 17.8027,19.6484 h 73.1817 a 254.795,254.795 0 0 1 -0.9297,-13.0039 254.795,254.795 0 0 1 0.4746,-6.6445 z" /><path
       style="color:#000000;clip-rule:evenodd;fill:#7200ff;fill-opacity:1;fill-rule:nonzero;-inkscape-stroke:none"
       d="m 3850.8378,1045.2852 c 2.9726,6.4339 5.6755,12.9891 8.1016,19.6484 h 400.4297 v -19.6484 z"
       id="path27417" /><path
       id="path27415"
       style="color:#000000;clip-rule:evenodd;fill:#7200ff;fill-opacity:1;fill-rule:nonzero;-inkscape-stroke:none"
       d="m 1658.6309,1045.2852 v 19.6484 h 1343.2675 l 26.9102,-19.6484 z m 1525.416,0 17.8027,19.6484 h 178.8125 a 254.795,254.795 0 0 1 7.4629,-19.6484 z" /><path
       style="color:#000000;clip-rule:evenodd;fill:#7200ff;fill-opacity:1;fill-rule:nonzero;-inkscape-stroke:none"
       d="m 3768.5214,945.32032 c 8.397,6.0555 16.4171,12.61714 24.0157,19.64843 h 466.832 v -19.64843 z"
       id="path27413" /><path
       style="color:#000000;clip-rule:evenodd;fill:#7200ff;fill-opacity:1;fill-rule:nonzero;-inkscape-stroke:none"
       d="m 1658.6308,945.32032 v 19.64843 h 1788.3594 a 254.795,254.795 0 0 1 24.3555,-19.64843 z"
       id="path102152-83-4-8" /><path
       id="path102152-8"
       style="color:#000000;clip-rule:nonzero;fill:#ff5d51;fill-rule:nonzero;-inkscape-stroke:none"
       d="m 1658.6309,1545.1152 v 19.6504 h 28.7187 l 25.5332,-19.6504 z m 2546.5253,0 20.4668,19.6504 h 33.7461 v -19.6504 z" /><path
       id="path102152-81"
       style="color:#000000;clip-rule:nonzero;fill:#ff5d51;fill-rule:nonzero;-inkscape-stroke:none"
       d="m 1658.6309,1445.1445 v 19.6504 h 158.6211 l 25.5332,-19.6504 z m 759.6269,0 23.4141,19.6504 h 12.6035 l 26.9121,-19.6504 z m 1374.6875,0 19.8106,19.6504 h 137.375 l 22.6152,-19.6504 z m 308.0801,0 20.4668,19.6504 h 137.8769 v -19.6504 z" /><path
       id="path102152-82"
       style="color:#000000;clip-rule:nonzero;fill:#ff5d51;fill-rule:nonzero;-inkscape-stroke:none"
       d="m 1658.6309,1345.1855 v 19.6504 h 288.5078 l 25.5332,-19.6504 z m 640.5293,0 23.414,19.6504 h 268.5996 l 26.9102,-19.6504 z m 1393.0136,0 19.8106,19.6504 h 547.3847 v -19.6504 z" /><path
       style="color:#000000;clip-rule:nonzero;fill:#3300ff;fill-rule:nonzero;-inkscape-stroke:none"
       d="m 1658.6309,845.35352 v 19.65039 h 2600.7382 v -19.65039 z"
       id="path102152-87" /><path
       style="color:#000000;clip-rule:nonzero;fill:#0021ff;fill-rule:nonzero;-inkscape-stroke:none"
       d="m 1658.6309,745.38867 v 19.65039 h 2600.7382 v -19.65039 z"
       id="path102152-88" /><g
       id="g24302"
       transform="matrix(1.1320392,0,0,1.1320392,-396.11752,-192.56511)"><g
         id="g20500"
         transform="translate(0,-399.93593)"><path
           id="path249"
           d="m 2487.26,2089.23 c 0,52.624 34.069,87.605 76.655,87.605 26.768,0 45.932,-12.776 55.97,-27.377 v 24.639 h 42.89 V 2005.58 h -42.89 v 24.03 c -10.038,-13.992 -28.593,-26.768 -55.666,-26.768 -42.89,0 -76.959,33.765 -76.959,86.388 z m 132.625,0.608 c 0,31.939 -21.293,49.582 -44.715,49.582 -22.814,0 -44.411,-18.251 -44.411,-50.19 0,-31.939 21.597,-48.974 44.411,-48.974 23.422,0 44.715,17.643 44.715,49.582 z"
           style="fill:#ffffff;fill-rule:nonzero" /><rect
           id="rect253"
           x="2698.3401"
           y="1949.01"
           width="42.585999"
           height="225.095"
           style="fill:#ffffff" /><path
           id="path257"
           d="m 2849.25,2037.83 c 21.902,0 39.544,13.993 40.153,36.198 h -80.001 c 3.346,-23.118 19.468,-36.198 39.848,-36.198 z m 80.001,83.346 h -45.932 c -5.475,11.255 -15.513,20.381 -33.765,20.381 -21.293,0 -38.327,-13.993 -40.456,-38.936 h 123.195 c 0.913,-5.475 1.217,-10.95 1.217,-16.426 0,-50.19 -34.373,-83.346 -83.043,-83.346 -49.886,0 -84.564,33.765 -84.564,86.997 0,52.928 35.59,86.996 84.564,86.996 41.673,0 69.659,-24.639 78.784,-55.666 z"
           style="fill:#ffffff;fill-rule:nonzero" /><path
           id="path261"
           d="m 3001,2029.92 v -24.335 h -42.586 v 248.822 H 3001 v -104.335 c 10.342,13.688 29.202,26.768 55.666,26.768 43.194,0 76.959,-34.981 76.959,-87.605 0,-52.623 -33.765,-86.388 -76.959,-86.388 -26.16,0 -45.628,12.776 -55.666,27.073 z m 89.126,59.315 c 0,31.939 -21.597,50.19 -44.715,50.19 -22.814,0 -44.411,-17.642 -44.411,-49.581 0,-31.94 21.597,-49.582 44.411,-49.582 23.118,0 44.715,17.034 44.715,48.973 z"
           style="fill:#ffffff;fill-rule:nonzero" /><path
           id="path265"
           d="m 3158.67,2174.1 h 42.586 v -93.08 c 0,-27.072 14.905,-41.673 38.023,-41.673 22.51,0 37.415,14.601 37.415,41.673 v 93.08 h 42.586 v -98.859 c 0,-46.54 -27.681,-72.092 -65.704,-72.092 -22.51,0 -41.369,9.126 -52.32,23.422 v -77.566 h -42.586 z"
           style="fill:#ffffff;fill-rule:nonzero" /><rect
           id="rect269"
           x="3353.6699"
           y="2005.58"
           width="42.585999"
           height="168.517"
           style="fill:#ffffff" /><path
           id="path273"
           d="m 3591.15,2005.58 h -42.89 v 92.776 c 0,27.072 -14.601,41.673 -37.72,41.673 -22.509,0 -37.414,-14.601 -37.414,-41.673 v -92.776 h -42.586 v 98.859 c 0,46.236 28.289,71.788 67.529,71.788 20.989,0 39.544,-9.126 50.191,-23.422 v 21.292 h 42.89 z"
           style="fill:#ffffff;fill-rule:nonzero" /><path
           id="path277"
           d="m 3862.8,2174.1 h 42.586 v -98.859 c 0,-46.54 -28.594,-72.092 -69.05,-72.092 -24.639,0 -46.845,13.08 -57.796,32.244 -11.559,-20.989 -33.156,-32.244 -59.316,-32.244 -20.989,0 -38.936,8.822 -49.582,22.814 v -20.38 h -42.586 V 2174.1 h 42.586 v -93.08 c 0,-26.768 14.905,-40.76 38.023,-40.76 22.51,0 37.415,13.992 37.415,40.76 v 93.08 h 42.586 v -93.08 c 0,-26.768 14.905,-40.76 37.719,-40.76 22.51,0 37.415,13.992 37.415,40.76 z"
           style="fill:#ffffff;fill-rule:nonzero" /><path
           id="path283"
           d="m 3396.71,1935.13 c 0,-3.45 -2.713,-5.769 -6.022,-5.186 l -31.168,5.496 c -3.374,0.596 -6.088,3.871 -6.088,7.321 v 38.863 c 0,3.445 2.714,5.769 6.088,5.174 l 31.168,-5.496 c 3.309,-0.583 6.022,-3.863 6.022,-7.309 z"
           style="fill:#ffffff" /></g><g
         id="g24286"><path
           id="path5302"
           d="m 2177.25,1735.3041 c 0,-5.443 -4.287,-9.107 -9.566,-8.176 l -63.504,11.196 c -5.279,0.93 -9.566,6.106 -9.566,11.549 v 119.943 c 0,5.443 4.287,9.106 9.566,8.175 l 63.504,-11.196 c 5.279,-0.93 9.566,-6.105 9.566,-11.548 z"
           style="fill:#ffffff" /><path
           id="path5304"
           d="m 2342.52,1466.7141 c 0,-5.443 -4.286,-9.106 -9.566,-8.176 l -63.504,11.196 c -5.279,0.931 -9.565,6.106 -9.565,11.549 v 119.943 c 0,5.443 4.286,9.106 9.565,8.176 l 63.504,-11.196 c 5.28,-0.931 9.566,-6.106 9.566,-11.549 z"
           style="fill:#7200ff" /><path
           id="path5306"
           d="m 2187.59,1494.7341 c -2.451,-5.399 -9.034,-8.974 -14.69,-7.977 l -68.041,11.996 c -5.657,0.997 -8.258,6.191 -5.806,11.591 l 150.483,331.433 c 2.452,5.4 9.034,8.975 14.691,7.977 l 68.041,-11.995 c 5.656,-0.997 8.257,-6.191 5.806,-11.591 z"
           style="fill:#ffffff" /></g></g></g></svg>
